<svg width="131" height="34" viewBox="0 0 131 34" fill="none" xmlns="http://www.w3.org/2000/svg">
<path d="M8.892 27.252C7.284 27.252 5.736 27.048 4.248 26.64C2.784 26.208 1.62 25.692 0.756 25.092L2.484 21.672C3.348 22.224 4.38 22.68 5.58 23.04C6.78 23.4 7.98 23.58 9.18 23.58C10.596 23.58 11.616 23.388 12.24 23.004C12.888 22.62 13.212 22.104 13.212 21.456C13.212 20.928 12.996 20.532 12.564 20.268C12.132 19.98 11.568 19.764 10.872 19.62C10.176 19.476 9.396 19.344 8.532 19.224C7.692 19.104 6.84 18.948 5.976 18.756C5.136 18.54 4.368 18.24 3.672 17.856C2.976 17.448 2.412 16.908 1.98 16.236C1.548 15.564 1.332 14.676 1.332 13.572C1.332 12.348 1.68 11.292 2.376 10.404C3.072 9.492 4.044 8.796 5.292 8.316C6.564 7.812 8.064 7.56 9.792 7.56C11.088 7.56 12.396 7.704 13.716 7.992C15.036 8.28 16.128 8.688 16.992 9.216L15.264 12.636C14.352 12.084 13.428 11.712 12.492 11.52C11.58 11.304 10.668 11.196 9.756 11.196C8.388 11.196 7.368 11.4 6.696 11.808C6.048 12.216 5.724 12.732 5.724 13.356C5.724 13.932 5.94 14.364 6.372 14.652C6.804 14.94 7.368 15.168 8.064 15.336C8.76 15.504 9.528 15.648 10.368 15.768C11.232 15.864 12.084 16.02 12.924 16.236C13.764 16.452 14.532 16.752 15.228 17.136C15.948 17.496 16.524 18.012 16.956 18.684C17.388 19.356 17.604 20.232 17.604 21.312C17.604 22.512 17.244 23.556 16.524 24.444C15.828 25.332 14.832 26.028 13.536 26.532C12.24 27.012 10.692 27.252 8.892 27.252ZM29.6153 27.252C27.7673 27.252 26.0993 26.844 24.6113 26.028C23.1473 25.212 21.9953 24.072 21.1553 22.608C20.3153 21.12 19.8953 19.38 19.8953 17.388C19.8953 15.396 20.3153 13.668 21.1553 12.204C21.9953 10.74 23.1473 9.6 24.6113 8.784C26.0993 7.968 27.7673 7.56 29.6153 7.56C31.2713 7.56 32.7233 7.92 33.9713 8.64C35.2433 9.336 36.2393 10.404 36.9593 11.844C37.7033 13.284 38.0753 15.132 38.0753 17.388C38.0753 19.62 37.6913 21.468 36.9233 22.932C36.1793 24.372 35.1713 25.452 33.8993 26.172C32.6273 26.892 31.1993 27.252 29.6153 27.252ZM30.1193 23.4C31.1993 23.4 32.1713 23.16 33.0353 22.68C33.8993 22.2 34.5833 21.504 35.0873 20.592C35.5913 19.68 35.8433 18.612 35.8433 17.388C35.8433 16.14 35.5913 15.072 35.0873 14.184C34.5833 13.272 33.8993 12.576 33.0353 12.096C32.1713 11.616 31.1993 11.376 30.1193 11.376C29.0393 11.376 28.0673 11.616 27.2033 12.096C26.3633 12.576 25.6913 13.272 25.1873 14.184C24.6833 15.072 24.4313 16.14 24.4313 17.388C24.4313 18.612 24.6833 19.68 25.1873 20.592C25.6913 21.504 26.3633 22.2 27.2033 22.68C28.0673 23.16 29.0393 23.4 30.1193 23.4ZM35.7713 33.984V22.536L36.1313 17.424L35.9873 12.312V7.776H40.2713V33.984H35.7713ZM54.295 27.252C52.663 27.252 51.223 26.952 49.975 26.352C48.727 25.728 47.755 24.792 47.059 23.544C46.363 22.272 46.015 20.676 46.015 18.756V7.776H50.515V18.144C50.515 19.872 50.899 21.168 51.667 22.032C52.459 22.872 53.575 23.292 55.015 23.292C56.071 23.292 56.983 23.076 57.751 22.644C58.543 22.212 59.155 21.564 59.587 20.7C60.043 19.836 60.271 18.768 60.271 17.496V7.776H64.771V27H60.487V21.816L61.243 23.4C60.595 24.648 59.647 25.608 58.399 26.28C57.151 26.928 55.783 27.252 54.295 27.252ZM82.5069 27V23.112L82.2549 22.284V15.48C82.2549 14.16 81.8589 13.14 81.0669 12.42C80.2749 11.676 79.0749 11.304 77.4669 11.304C76.3869 11.304 75.3189 11.472 74.2629 11.808C73.2309 12.144 72.3549 12.612 71.6349 13.212L69.8709 9.936C70.9029 9.144 72.1269 8.556 73.5429 8.172C74.9829 7.764 76.4709 7.56 78.0069 7.56C80.7909 7.56 82.9389 8.232 84.4509 9.576C85.9869 10.896 86.7549 12.948 86.7549 15.732V27H82.5069ZM76.4589 27.252C75.0189 27.252 73.7589 27.012 72.6789 26.532C71.5989 26.028 70.7589 25.344 70.1589 24.48C69.5829 23.592 69.2949 22.596 69.2949 21.492C69.2949 20.412 69.5469 19.44 70.0509 18.576C70.5789 17.712 71.4309 17.028 72.6069 16.524C73.7829 16.02 75.3429 15.768 77.2869 15.768H82.8669V18.756H77.6109C76.0749 18.756 75.0429 19.008 74.5149 19.512C73.9869 19.992 73.7229 20.592 73.7229 21.312C73.7229 22.128 74.0469 22.776 74.6949 23.256C75.3429 23.736 76.2429 23.976 77.3949 23.976C78.4989 23.976 79.4829 23.724 80.3469 23.22C81.2349 22.716 81.8709 21.972 82.2549 20.988L83.0109 23.688C82.5789 24.816 81.7989 25.692 80.6709 26.316C79.5669 26.94 78.1629 27.252 76.4589 27.252ZM92.5301 27V0.287998H97.0301V27H92.5301ZM111.576 27.252C109.608 27.252 107.856 26.832 106.32 25.992C104.784 25.128 103.572 23.952 102.684 22.464C101.796 20.976 101.352 19.284 101.352 17.388C101.352 15.468 101.796 13.776 102.684 12.312C103.572 10.824 104.784 9.66 106.32 8.82C107.856 7.98 109.608 7.56 111.576 7.56C113.568 7.56 115.332 7.98 116.868 8.82C118.428 9.66 119.64 10.812 120.504 12.276C121.392 13.74 121.836 15.444 121.836 17.388C121.836 19.284 121.392 20.976 120.504 22.464C119.64 23.952 118.428 25.128 116.868 25.992C115.332 26.832 113.568 27.252 111.576 27.252ZM111.576 23.4C112.68 23.4 113.664 23.16 114.528 22.68C115.392 22.2 116.064 21.504 116.544 20.592C117.048 19.68 117.3 18.612 117.3 17.388C117.3 16.14 117.048 15.072 116.544 14.184C116.064 13.272 115.392 12.576 114.528 12.096C113.664 11.616 112.692 11.376 111.612 11.376C110.508 11.376 109.524 11.616 108.66 12.096C107.82 12.576 107.148 13.272 106.644 14.184C106.14 15.072 105.888 16.14 105.888 17.388C105.888 18.612 106.14 19.68 106.644 20.592C107.148 21.504 107.82 22.2 108.66 22.68C109.524 23.16 110.496 23.4 111.576 23.4Z" fill="black"/>
<path d="M127.58 27.252C126.764 27.252 126.068 26.976 125.492 26.424C124.916 25.848 124.628 25.128 124.628 24.264C124.628 23.352 124.916 22.632 125.492 22.104C126.068 21.552 126.764 21.276 127.58 21.276C128.396 21.276 129.092 21.552 129.668 22.104C130.244 22.632 130.532 23.352 130.532 24.264C130.532 25.128 130.244 25.848 129.668 26.424C129.092 26.976 128.396 27.252 127.58 27.252Z" fill="#1B76FF"/>
</svg>
